<svg xmlns="http://www.w3.org/2000/svg" viewBox="-375.83 -543.84 1280.31 182.217" width="1280.31" height="182.217">
  <defs>
    <filter id="weathered-edge">
      <feTurbulence type="fractalNoise" baseFrequency="0.04" numOctaves="4" result="noise"></feTurbulence>
      <feDisplacementMap in="SourceGraphic" in2="noise" scale="2"></feDisplacementMap>
    </filter>
    <filter id="ink-grain">
      <feTurbulence type="fractalNoise" baseFrequency="0.8" numOctaves="3" result="rawNoise"></feTurbulence>
      <feColorMatrix type="matrix" values="0 0 0 0 0 0 0 0 0 0 0 0 0 0 0 0 0 0 5 -2.5" in="rawNoise" result="grainMask"></feColorMatrix>
      <feComposite operator="in" in="SourceGraphic" in2="grainMask"></feComposite>
    </filter>
  </defs>
  <rect id="shading" x="-375.83" y="-543.84" width="1280.31" height="182.217" stroke="#000" stroke-width="6px" fill="#3b3b3b" rx="21" ry="21"></rect>
  <rect id="bg" x="-348.03" y="-540.85" width="1224.63" height="176.764" fill="#252525" rx="21" ry="21"></rect>
  <path id="tabhole" fill="#000" d="M-243.58-455.95h63.673v78.748h-63.673z"></path>
  <rect id="tab" x="-235.46" y="-433.93" width="47.428" height="59.515" style="opacity: var(--tab_unlocked, 1); fill: rgb(37, 37, 37);" rx="1" ry="1"></rect>
  <path id="midline" stroke="#000" d="m-375.146-456.012 1278.06-.984"></path>
  <g filter="url(#weathered-edge)">
    <rect id="label" x="-148.48" y="-524.14" width="962.097" height="144.125" fill="#fff" rx="9" ry="9"></rect>
  </g>
  <path id="color1" style="fill: var(--color1, #fff);" d="M-106.04-524.28h-33.736a9 9 0 0 1-9 9v126.407a9 9 0 0 1 9 9H-106.04z"></path>
  <path id="color2" style="fill: var(--color2, #fff);" d="M -108.14 -379.87 L -65.4 -379.87 L -65.4 -524.28 L -108.14 -524.28 L -108.14 -379.87 Z"></path>
  <path id="color3" style="fill: var(--color3, #fff);" d="M -69 -379.87 L -26.264 -379.87 L -26.264 -524.28 L -69 -524.28 L -69 -379.87 Z"></path>
  <path id="color4" style="fill: var(--color4, #fff);" d="M 689.914 -524.28 L 732.65 -524.28 L 732.65 -379.87 L 689.914 -379.87 L 689.914 -524.28 Z"></path>
  <path id="color5" style="fill: var(--color5, #fff);" d="M 730.006 -524.28 L 772.742 -524.28 L 772.742 -379.87 L 730.006 -379.87 L 730.006 -524.28 Z"></path>
  <path id="color6" style="fill: var(--color6, #fff);" d="M770.654-524.28h33.736a9 9 0 0 1 9 9v126.407a9 9 0 0 1-9 9h-33.736z"></path>
  <g filter="url(#ink-grain)" >
    <rect id="bg-2" x="-348.03" y="-540.85" width="1224.63" height="176.764" style="fill-opacity:.1;fill:#777" rx="21" ry="21"></rect>
  </g>
</svg>
